<?xml version="1.0" encoding="UTF-8" standalone="no"?>
<!DOCTYPE svg PUBLIC "-//W3C//DTD SVG 1.1//EN"
 "http://www.w3.org/Graphics/SVG/1.1/DTD/svg11.dtd">
<!-- Generated by graphviz version 14.1.2 (20260124.0452)
 -->
<!-- Title: arena_state Pages: 1 -->
<svg width="818pt" height="164pt"
 viewBox="0.00 0.00 818.00 164.00" xmlns="http://www.w3.org/2000/svg" xmlns:xlink="http://www.w3.org/1999/xlink">
<g id="graph0" class="graph" transform="scale(1 1) rotate(0) translate(4 160)">
<title>arena_state</title>
<!-- boot -->
<g id="node1" class="node">
<title>boot</title>
<ellipse fill="#1a1a1a" stroke="none" cx="7.92" cy="-49" rx="7.92" ry="7.92"/>
</g>
<!-- paused -->
<g id="node2" class="node">
<title>paused</title>
<path fill="#f7e3c0" stroke="none" d="M238.09,-71C238.09,-71 159.84,-71 159.84,-71 153.84,-71 147.84,-65 147.84,-59 147.84,-59 147.84,-39 147.84,-39 147.84,-33 153.84,-27 159.84,-27 159.84,-27 238.09,-27 238.09,-27 244.09,-27 250.09,-33 250.09,-39 250.09,-39 250.09,-59 250.09,-59 250.09,-65 244.09,-71 238.09,-71"/>
<text xml:space="preserve" text-anchor="middle" x="198.96" y="-56.55" font-family="Helvetica,sans-Serif" font-size="11.00" fill="#1a1a1a">PAUSED</text>
<text xml:space="preserve" text-anchor="middle" x="198.96" y="-44.55" font-family="Helvetica,sans-Serif" font-size="11.00" fill="#1a1a1a">nobody registered</text>
<text xml:space="preserve" text-anchor="middle" x="198.96" y="-32.55" font-family="Helvetica,sans-Serif" font-size="11.00" fill="#1a1a1a">nothing is played</text>
</g>
<!-- boot&#45;&gt;paused -->
<g id="edge1" class="edge">
<title>boot&#45;&gt;paused</title>
<path fill="none" stroke="#888888" d="M16.1,-49C35.64,-49 91.32,-49 135.97,-49"/>
<polygon fill="#888888" stroke="#888888" points="135.83,-52.5 145.83,-49 135.83,-45.5 135.83,-52.5"/>
<text xml:space="preserve" text-anchor="middle" x="81.84" y="-59.95" font-family="Helvetica,sans-Serif" font-size="9.00" fill="#888888">server starts,</text>
<text xml:space="preserve" text-anchor="middle" x="81.84" y="-50.2" font-family="Helvetica,sans-Serif" font-size="9.00" fill="#888888">config robots registered</text>
</g>
<!-- paused&#45;&gt;paused -->
<g id="edge2" class="edge">
<title>paused&#45;&gt;paused</title>
<path fill="none" stroke="#888888" d="M177.68,-71.21C175.94,-80.8 183.04,-89 198.96,-89 208.17,-89 214.43,-86.26 217.73,-82.09"/>
<polygon fill="#888888" stroke="#888888" points="221.07,-83.22 219.91,-72.69 214.25,-81.64 221.07,-83.22"/>
<text xml:space="preserve" text-anchor="middle" x="198.96" y="-90.2" font-family="Helvetica,sans-Serif" font-size="9.00" fill="#888888">wait (0.5 s poll)</text>
</g>
<!-- playing -->
<g id="node3" class="node">
<title>playing</title>
<path fill="#d8ecd8" stroke="none" d="M467.09,-86C467.09,-86 389.59,-86 389.59,-86 383.59,-86 377.59,-80 377.59,-74 377.59,-74 377.59,-62 377.59,-62 377.59,-56 383.59,-50 389.59,-50 389.59,-50 467.09,-50 467.09,-50 473.09,-50 479.09,-56 479.09,-62 479.09,-62 479.09,-74 479.09,-74 479.09,-80 473.09,-86 467.09,-86"/>
<text xml:space="preserve" text-anchor="middle" x="428.34" y="-69.55" font-family="Helvetica,sans-Serif" font-size="11.00" fill="#1a1a1a">PLAYING</text>
<text xml:space="preserve" text-anchor="middle" x="428.34" y="-57.55" font-family="Helvetica,sans-Serif" font-size="11.00" fill="#1a1a1a">a match is in flight</text>
</g>
<!-- paused&#45;&gt;playing -->
<g id="edge3" class="edge">
<title>paused&#45;&gt;playing</title>
<path fill="none" stroke="#888888" d="M240.36,-71.49C249.24,-75.43 258.78,-78.92 268.09,-81 300.02,-88.13 336.33,-85.93 366.2,-81.48"/>
<polygon fill="#888888" stroke="#888888" points="366.51,-84.98 375.82,-79.93 365.39,-78.07 366.51,-84.98"/>
<text xml:space="preserve" text-anchor="middle" x="313.84" y="-109.3" font-family="Helvetica,sans-Serif" font-size="9.00" fill="#888888">register</text>
<text xml:space="preserve" text-anchor="middle" x="313.84" y="-99.55" font-family="Helvetica,sans-Serif" font-size="9.00" fill="#888888">→ player_registered</text>
<text xml:space="preserve" text-anchor="middle" x="313.84" y="-88.3" font-family="Helvetica,sans-Serif" font-size="9.00" fill="#888888">→ arena_resumed</text>
</g>
<!-- stopped -->
<g id="node4" class="node">
<title>stopped</title>
<path fill="#f6cfcf" stroke="none" d="M705.09,-36C705.09,-36 605.84,-36 605.84,-36 599.84,-36 593.84,-30 593.84,-24 593.84,-24 593.84,-12 593.84,-12 593.84,-6 599.84,0 605.84,0 605.84,0 705.09,0 705.09,0 711.09,0 717.09,-6 717.09,-12 717.09,-12 717.09,-24 717.09,-24 717.09,-30 711.09,-36 705.09,-36"/>
<text xml:space="preserve" text-anchor="middle" x="655.46" y="-19.55" font-family="Helvetica,sans-Serif" font-size="11.00" fill="#1a1a1a">STOPPED</text>
<text xml:space="preserve" text-anchor="middle" x="655.46" y="-7.55" font-family="Helvetica,sans-Serif" font-size="11.00" fill="#1a1a1a">process shutting down</text>
</g>
<!-- paused&#45;&gt;stopped -->
<g id="edge7" class="edge">
<title>paused&#45;&gt;stopped</title>
<path fill="none" stroke="#888888" d="M250.48,-40.27C256.41,-39.42 262.37,-38.64 268.09,-38 377.21,-25.86 504.51,-21.07 582.28,-19.19"/>
<polygon fill="#888888" stroke="#888888" points="581.96,-22.7 591.87,-18.97 581.8,-15.7 581.96,-22.7"/>
<text xml:space="preserve" text-anchor="middle" x="428.34" y="-29.41" font-family="Helvetica,sans-Serif" font-size="9.00" fill="#888888">stop_arena</text>
</g>
<!-- playing&#45;&gt;paused -->
<g id="edge5" class="edge">
<title>playing&#45;&gt;paused</title>
<path fill="none" stroke="#888888" d="M377.44,-50.07C371.49,-48.51 365.45,-47.17 359.59,-46.25 327.56,-41.23 291.47,-41.38 261.73,-43.01"/>
<polygon fill="#888888" stroke="#888888" points="261.51,-39.52 251.75,-43.64 261.95,-46.5 261.51,-39.52"/>
<text xml:space="preserve" text-anchor="middle" x="313.84" y="-68.45" font-family="Helvetica,sans-Serif" font-size="9.00" fill="#888888">last robot unregistered</text>
<text xml:space="preserve" text-anchor="middle" x="313.84" y="-58.7" font-family="Helvetica,sans-Serif" font-size="9.00" fill="#888888">AND match finishes</text>
<text xml:space="preserve" text-anchor="middle" x="313.84" y="-48.95" font-family="Helvetica,sans-Serif" font-size="9.00" fill="#888888">→ arena_paused</text>
</g>
<!-- playing&#45;&gt;playing -->
<g id="edge4" class="edge">
<title>playing&#45;&gt;playing</title>
<path fill="none" stroke="#888888" d="M411.7,-86.15C409.14,-95.54 414.68,-104 428.34,-104 436.02,-104 441.14,-101.32 443.69,-97.31"/>
<polygon fill="#888888" stroke="#888888" points="447.13,-97.99 444.81,-87.66 440.18,-97.19 447.13,-97.99"/>
<text xml:space="preserve" text-anchor="middle" x="428.34" y="-147.45" font-family="Helvetica,sans-Serif" font-size="9.00" fill="#888888">match ends → the next one starts</text>
<text xml:space="preserve" text-anchor="middle" x="428.34" y="-136.2" font-family="Helvetica,sans-Serif" font-size="9.00" fill="#888888">back to back, score kept</text>
<text xml:space="preserve" text-anchor="middle" x="428.34" y="-116.45" font-family="Helvetica,sans-Serif" font-size="9.00" fill="#888888">POST /api/new&#45;game → game_ended early,</text>
<text xml:space="preserve" text-anchor="middle" x="428.34" y="-105.2" font-family="Helvetica,sans-Serif" font-size="9.00" fill="#888888">then straight into the next match</text>
</g>
<!-- playing&#45;&gt;stopped -->
<g id="edge6" class="edge">
<title>playing&#45;&gt;stopped</title>
<path fill="none" stroke="#888888" d="M479.58,-56.84C509.85,-50.12 548.91,-41.44 582.42,-34"/>
<polygon fill="#888888" stroke="#888888" points="583.08,-37.44 592.08,-31.86 581.56,-30.61 583.08,-37.44"/>
<text xml:space="preserve" text-anchor="middle" x="520.34" y="-53.03" font-family="Helvetica,sans-Serif" font-size="9.00" fill="#888888">stop_arena</text>
</g>
<!-- note -->
<g id="node6" class="node">
<title>note</title>
<polygon fill="#e6e6e6" stroke="none" points="743.34,-92.62 561.59,-92.62 561.59,-55.38 749.34,-55.38 749.34,-86.62 743.34,-92.62"/>
<polyline fill="none" stroke="none" points="743.34,-92.62 743.34,-86.62"/>
<polyline fill="none" stroke="none" points="749.34,-86.62 743.34,-86.62"/>
<text xml:space="preserve" text-anchor="middle" x="655.46" y="-80.08" font-family="Helvetica,sans-Serif" font-size="9.00" fill="#1a1a1a">Unregistering never interrupts a match.</text>
<text xml:space="preserve" text-anchor="middle" x="655.46" y="-70.33" font-family="Helvetica,sans-Serif" font-size="9.00" fill="#1a1a1a">A Game fixes its contestants when it starts,</text>
<text xml:space="preserve" text-anchor="middle" x="655.46" y="-60.58" font-family="Helvetica,sans-Serif" font-size="9.00" fill="#1a1a1a">so a leaving robot plays that match out.</text>
</g>
<!-- playing&#45;&gt;note -->
<g id="edge9" class="edge">
<title>playing&#45;&gt;note</title>
<path fill="none" stroke="#888888" stroke-dasharray="5,2" d="M479.58,-69.34C503.69,-69.98 533.36,-70.77 561.37,-71.52"/>
</g>
<!-- done -->
<g id="node5" class="node">
<title>done</title>
<ellipse fill="#1a1a1a" stroke="none" cx="798.26" cy="-18" rx="7.92" ry="7.92"/>
<ellipse fill="none" stroke="none" cx="798.26" cy="-18" rx="11.92" ry="11.92"/>
</g>
<!-- stopped&#45;&gt;done -->
<g id="edge8" class="edge">
<title>stopped&#45;&gt;done</title>
<path fill="none" stroke="#888888" d="M717.4,-18C737.81,-18 759.3,-18 774.84,-18"/>
<polygon fill="#888888" stroke="#888888" points="774.38,-21.5 784.38,-18 774.38,-14.5 774.38,-21.5"/>
</g>
</g>
</svg>
