<?xml version="1.0" encoding="UTF-8" standalone="no"?>
<!DOCTYPE svg PUBLIC "-//W3C//DTD SVG 1.1//EN"
 "http://www.w3.org/Graphics/SVG/1.1/DTD/svg11.dtd">
<!-- Generated by graphviz version 14.1.2 (20260124.0452)
 -->
<!-- Title: game_aggregate Pages: 1 -->
<svg width="855pt" height="371pt"
 viewBox="0.00 0.00 855.00 371.00" xmlns="http://www.w3.org/2000/svg" xmlns:xlink="http://www.w3.org/1999/xlink">
<g id="graph0" class="graph" transform="scale(1 1) rotate(0) translate(4 367)">
<title>game_aggregate</title>
<g id="clust1" class="cluster">
<title>cluster_game</title>
<path fill="none" stroke="#888888" stroke-dasharray="5,2" d="M276.5,-8C276.5,-8 503.25,-8 503.25,-8 509.25,-8 515.25,-14 515.25,-20 515.25,-20 515.25,-343 515.25,-343 515.25,-349 509.25,-355 503.25,-355 503.25,-355 276.5,-355 276.5,-355 270.5,-355 264.5,-349 264.5,-343 264.5,-343 264.5,-20 264.5,-20 264.5,-14 270.5,-8 276.5,-8"/>
<text xml:space="preserve" text-anchor="middle" x="389.88" y="-341.5" font-family="Helvetica,sans-Serif" font-size="10.00" fill="#888888"> &#160;Game — one match, rebuilt from nothing each time &#160;</text>
</g>
<!-- board -->
<g id="node1" class="node">
<title>board</title>
<polygon fill="#e6e6e6" stroke="none" points="425.12,-52 353.62,-52 353.62,-16 425.12,-16 425.12,-52"/>
<text xml:space="preserve" text-anchor="middle" x="389.38" y="-30.12" font-family="Helvetica,sans-Serif" font-size="10.00" fill="#1a1a1a">board: Board</text>
</g>
<!-- order -->
<g id="node2" class="node">
<title>order</title>
<polygon fill="#cfe3f7" stroke="none" points="439.38,-160 339.38,-160 339.38,-124 439.38,-124 439.38,-160"/>
<text xml:space="preserve" text-anchor="middle" x="389.38" y="-143.75" font-family="Helvetica,sans-Serif" font-size="10.00" fill="#1a1a1a">players: list[Player]</text>
<text xml:space="preserve" text-anchor="middle" x="389.38" y="-132.5" font-family="Helvetica,sans-Serif" font-size="10.00" fill="#1a1a1a">registration order</text>
</g>
<!-- score -->
<g id="node7" class="node">
<title>score</title>
<polygon fill="#f7e3c0" stroke="none" points="843.12,-269 655.38,-269 655.38,-233 843.12,-233 843.12,-269"/>
<text xml:space="preserve" text-anchor="middle" x="749.25" y="-252.75" font-family="Helvetica,sans-Serif" font-size="10.00" fill="#1a1a1a">Scoreboard</text>
<text xml:space="preserve" text-anchor="middle" x="749.25" y="-241.5" font-family="Helvetica,sans-Serif" font-size="10.00" fill="#1a1a1a">INJECTED, shared, outlives the match</text>
</g>
<!-- order&#45;&gt;score -->
<g id="edge3" class="edge">
<title>order&#45;&gt;score</title>
<path fill="none" stroke="#888888" d="M439.76,-142.64C464.68,-145.28 494.03,-152.2 515.25,-169 523.35,-175.42 517.32,-183.37 525.25,-190 544,-205.68 595.38,-220.25 644.1,-231.21"/>
<polygon fill="#888888" stroke="#888888" points="643.09,-234.58 653.61,-233.31 644.6,-227.74 643.09,-234.58"/>
<text xml:space="preserve" text-anchor="start" x="525.25" y="-239.63" font-family="Helvetica,sans-Serif" font-size="9.00" fill="#888888"> &#160;record_turn / _elimination</text>
<text xml:space="preserve" text-anchor="start" x="525.25" y="-229.88" font-family="Helvetica,sans-Serif" font-size="9.00" fill="#888888"> &#160;/ _death / _win</text>
</g>
<!-- clock -->
<g id="node9" class="node">
<title>clock</title>
<polygon fill="#f6cfcf" stroke="none" points="846.5,-210 652,-210 652,-174 846.5,-174 846.5,-210"/>
<text xml:space="preserve" text-anchor="middle" x="749.25" y="-193.75" font-family="Helvetica,sans-Serif" font-size="10.00" fill="#1a1a1a">Clock</text>
<text xml:space="preserve" text-anchor="middle" x="749.25" y="-182.5" font-family="Helvetica,sans-Serif" font-size="10.00" fill="#1a1a1a">INJECTED — the only way it reads time</text>
</g>
<!-- order&#45;&gt;clock -->
<g id="edge4" class="edge">
<title>order&#45;&gt;clock</title>
<path fill="none" stroke="#888888" d="M439.76,-148.9C491.24,-156.09 573.55,-167.59 640.2,-176.9"/>
<polygon fill="#888888" stroke="#888888" points="639.72,-180.37 650.11,-178.29 640.69,-173.44 639.72,-180.37"/>
<text xml:space="preserve" text-anchor="middle" x="579.62" y="-177.03" font-family="Helvetica,sans-Serif" font-size="9.00" fill="#888888"> &#160;now() to time a turn</text>
</g>
<!-- listen -->
<g id="node10" class="node">
<title>listen</title>
<polygon fill="#d8ecd8" stroke="none" points="816.12,-156 682.38,-156 682.38,-120 816.12,-120 816.12,-156"/>
<text xml:space="preserve" text-anchor="middle" x="749.25" y="-139.75" font-family="Helvetica,sans-Serif" font-size="10.00" fill="#1a1a1a">GameListener × n</text>
<text xml:space="preserve" text-anchor="middle" x="749.25" y="-128.5" font-family="Helvetica,sans-Serif" font-size="10.00" fill="#1a1a1a">notified in registration order</text>
</g>
<!-- order&#45;&gt;listen -->
<g id="edge5" class="edge">
<title>order&#45;&gt;listen</title>
<path fill="none" stroke="#888888" d="M439.76,-141.45C499.43,-140.78 600.52,-139.65 670.64,-138.87"/>
<polygon fill="#888888" stroke="#888888" points="670.58,-142.37 680.54,-138.76 670.5,-135.37 670.58,-142.37"/>
<text xml:space="preserve" text-anchor="middle" x="579.62" y="-141.68" font-family="Helvetica,sans-Serif" font-size="9.00" fill="#888888"> &#160;every event</text>
</g>
<!-- pos -->
<g id="node3" class="node">
<title>pos</title>
<polygon fill="#d8ecd8" stroke="none" points="442.38,-274 336.38,-274 336.38,-238 442.38,-238 442.38,-274"/>
<text xml:space="preserve" text-anchor="middle" x="389.38" y="-257.75" font-family="Helvetica,sans-Serif" font-size="10.00" fill="#1a1a1a">positions:</text>
<text xml:space="preserve" text-anchor="middle" x="389.38" y="-246.5" font-family="Helvetica,sans-Serif" font-size="10.00" fill="#1a1a1a">dict[Player, Position]</text>
</g>
<!-- pos&#45;&gt;score -->
<!-- health -->
<g id="node4" class="node">
<title>health</title>
<polygon fill="#d8ecd8" stroke="none" points="430,-219.88 348.75,-219.88 348.75,-178.12 430,-178.12 430,-219.88"/>
<text xml:space="preserve" text-anchor="middle" x="389.38" y="-206.38" font-family="Helvetica,sans-Serif" font-size="10.00" fill="#1a1a1a">health:</text>
<text xml:space="preserve" text-anchor="middle" x="389.38" y="-195.12" font-family="Helvetica,sans-Serif" font-size="10.00" fill="#1a1a1a">dict[Player, int]</text>
<text xml:space="preserve" text-anchor="middle" x="389.38" y="-183.88" font-family="Helvetica,sans-Serif" font-size="10.00" fill="#1a1a1a">0..100</text>
</g>
<!-- spells -->
<g id="node5" class="node">
<title>spells</title>
<polygon fill="#d8ecd8" stroke="none" points="456.62,-106 322.12,-106 322.12,-70 456.62,-70 456.62,-106"/>
<text xml:space="preserve" text-anchor="middle" x="389.38" y="-89.75" font-family="Helvetica,sans-Serif" font-size="10.00" fill="#1a1a1a">spells:</text>
<text xml:space="preserve" text-anchor="middle" x="389.38" y="-78.5" font-family="Helvetica,sans-Serif" font-size="10.00" fill="#1a1a1a">dict[Player, tuple[Spell, ...]]</text>
</g>
<!-- key -->
<g id="node11" class="node">
<title>key</title>
<polygon fill="#cfe3f7" stroke="none" points="839.75,-102.38 652.75,-102.38 652.75,-35.62 845.75,-35.62 845.75,-96.38 839.75,-102.38"/>
<polyline fill="none" stroke="none" points="839.75,-102.38 839.75,-96.38"/>
<polyline fill="none" stroke="none" points="845.75,-96.38 839.75,-96.38"/>
<text xml:space="preserve" text-anchor="middle" x="749.25" y="-89.83" font-family="Helvetica,sans-Serif" font-size="9.00" fill="#1a1a1a">Every per&#45;robot map is keyed by the Player</text>
<text xml:space="preserve" text-anchor="middle" x="749.25" y="-80.08" font-family="Helvetica,sans-Serif" font-size="9.00" fill="#1a1a1a">OBJECT, never by name — two contestants</text>
<text xml:space="preserve" text-anchor="middle" x="749.25" y="-70.33" font-family="Helvetica,sans-Serif" font-size="9.00" fill="#1a1a1a">are allowed to share a name.</text>
<text xml:space="preserve" text-anchor="middle" x="749.25" y="-50.58" font-family="Helvetica,sans-Serif" font-size="9.00" fill="#1a1a1a">Nothing here survives the match. Anything</text>
<text xml:space="preserve" text-anchor="middle" x="749.25" y="-40.83" font-family="Helvetica,sans-Serif" font-size="9.00" fill="#1a1a1a">that must is injected from outside.</text>
</g>
<!-- spells&#45;&gt;key -->
<g id="edge6" class="edge">
<title>spells&#45;&gt;key</title>
<path fill="none" stroke="#888888" stroke-dasharray="5,2" d="M456.85,-84.47C511.83,-81.55 590.64,-77.37 652.43,-74.09"/>
</g>
<!-- stopf -->
<g id="node6" class="node">
<title>stopf</title>
<polygon fill="#e6e6e6" stroke="none" points="439,-328 339.75,-328 339.75,-292 439,-292 439,-328"/>
<text xml:space="preserve" text-anchor="middle" x="389.38" y="-311.75" font-family="Helvetica,sans-Serif" font-size="10.00" fill="#1a1a1a">_stopping: bool</text>
<text xml:space="preserve" text-anchor="middle" x="389.38" y="-300.5" font-family="Helvetica,sans-Serif" font-size="10.00" fill="#1a1a1a">read between turns</text>
</g>
<!-- book -->
<g id="node8" class="node">
<title>book</title>
<polygon fill="#f7e3c0" stroke="none" points="170.5,-106 0,-106 0,-70 170.5,-70 170.5,-106"/>
<text xml:space="preserve" text-anchor="middle" x="85.25" y="-89.75" font-family="Helvetica,sans-Serif" font-size="10.00" fill="#1a1a1a">SpellBook</text>
<text xml:space="preserve" text-anchor="middle" x="85.25" y="-78.5" font-family="Helvetica,sans-Serif" font-size="10.00" fill="#1a1a1a">INJECTED, one fresh set per robot</text>
</g>
<!-- book&#45;&gt;spells -->
<g id="edge1" class="edge">
<title>book&#45;&gt;spells</title>
<path fill="none" stroke="#888888" d="M170.81,-88C214.63,-88 267.77,-88 310.56,-88"/>
<polygon fill="#888888" stroke="#888888" points="310.54,-91.5 320.54,-88 310.54,-84.5 310.54,-91.5"/>
<text xml:space="preserve" text-anchor="start" x="188.5" y="-98.95" font-family="Helvetica,sans-Serif" font-size="9.00" fill="#888888"> &#160;create_spells()</text>
<text xml:space="preserve" text-anchor="start" x="188.5" y="-89.2" font-family="Helvetica,sans-Serif" font-size="9.00" fill="#888888"> &#160;per registration</text>
</g>
</g>
</svg>
