<?xml version="1.0" encoding="UTF-8" standalone="no"?>
<!DOCTYPE svg PUBLIC "-//W3C//DTD SVG 1.1//EN"
 "http://www.w3.org/Graphics/SVG/1.1/DTD/svg11.dtd">
<!-- Generated by graphviz version 14.1.2 (20260124.0452)
 -->
<!-- Title: lifetimes Pages: 1 -->
<svg width="428pt" height="515pt"
 viewBox="0.00 0.00 428.00 515.00" xmlns="http://www.w3.org/2000/svg" xmlns:xlink="http://www.w3.org/1999/xlink">
<g id="graph0" class="graph" transform="scale(1 1) rotate(0) translate(4 510.75)">
<title>lifetimes</title>
<g id="clust1" class="cluster">
<title>cluster_process</title>
<path fill="none" stroke="#888888" d="M20,-124C20,-124 400,-124 400,-124 406,-124 412,-130 412,-136 412,-136 412,-486.75 412,-486.75 412,-492.75 406,-498.75 400,-498.75 400,-498.75 20,-498.75 20,-498.75 14,-498.75 8,-492.75 8,-486.75 8,-486.75 8,-136 8,-136 8,-130 14,-124 20,-124"/>
<text xml:space="preserve" text-anchor="middle" x="154" y="-485.25" font-family="Helvetica,sans-Serif" font-size="10.00" fill="#888888"> &#160;PROCESS — built once by cli/main.py, the composition root &#160;</text>
</g>
<g id="clust2" class="cluster">
<title>cluster_registered</title>
<path fill="none" stroke="#888888" d="M28,-201.75C28,-201.75 392,-201.75 392,-201.75 398,-201.75 404,-207.75 404,-213.75 404,-213.75 404,-459.5 404,-459.5 404,-465.5 398,-471.5 392,-471.5 392,-471.5 28,-471.5 28,-471.5 22,-471.5 16,-465.5 16,-459.5 16,-459.5 16,-213.75 16,-213.75 16,-207.75 22,-201.75 28,-201.75"/>
<text xml:space="preserve" text-anchor="middle" x="149.62" y="-458" font-family="Helvetica,sans-Serif" font-size="10.00" fill="#888888"> &#160;WHILE REGISTERED — joins and leaves at any time &#160;</text>
</g>
<g id="clust3" class="cluster">
<title>cluster_match</title>
<path fill="none" stroke="#888888" d="M36,-273.75C36,-273.75 384,-273.75 384,-273.75 390,-273.75 396,-279.75 396,-285.75 396,-285.75 396,-432.25 396,-432.25 396,-438.25 390,-444.25 384,-444.25 384,-444.25 36,-444.25 36,-444.25 30,-444.25 24,-438.25 24,-432.25 24,-432.25 24,-285.75 24,-285.75 24,-279.75 30,-273.75 36,-273.75"/>
<text xml:space="preserve" text-anchor="middle" x="135.12" y="-430.75" font-family="Helvetica,sans-Serif" font-size="10.00" fill="#888888"> &#160;PER MATCH — a fresh Game, from nothing &#160;</text>
</g>
<g id="clust4" class="cluster">
<title>cluster_turn</title>
<path fill="none" stroke="#888888" d="M76,-345.75C76,-345.75 344,-345.75 344,-345.75 350,-345.75 356,-351.75 356,-357.75 356,-357.75 356,-405 356,-405 356,-411 350,-417 344,-417 344,-417 76,-417 76,-417 70,-417 64,-411 64,-405 64,-405 64,-357.75 64,-357.75 64,-351.75 70,-345.75 76,-345.75"/>
<text xml:space="preserve" text-anchor="middle" x="104.25" y="-403.5" font-family="Helvetica,sans-Serif" font-size="10.00" fill="#888888"> &#160;PER TURN &#160;</text>
</g>
<!-- p1 -->
<g id="node1" class="node">
<title>p1</title>
<polygon fill="#f7e3c0" stroke="none" points="382.62,-173.75 37.38,-173.75 37.38,-132 382.62,-132 382.62,-173.75"/>
<text xml:space="preserve" text-anchor="start" x="45.38" y="-160.25" font-family="Helvetica,sans-Serif" font-size="10.00" fill="#1a1a1a">Engine &#160;· &#160;PlayerRegistry &#160;· &#160;Scoreboard &#160;· &#160;SpellBook &#160;· &#160;GameFactory</text>
<text xml:space="preserve" text-anchor="start" x="45.38" y="-149" font-family="Helvetica,sans-Serif" font-size="10.00" fill="#1a1a1a">Clock &#160;· &#160;Console &#160;· &#160;FileSystem &#160;· &#160;Randomizer &#160;· &#160;EventChannel &#160;· &#160;Logger</text>
<text xml:space="preserve" text-anchor="start" x="45.38" y="-137.75" font-family="Helvetica,sans-Serif" font-size="10.00" fill="#1a1a1a">the three GameListeners &#160;· &#160;AppConfig</text>
</g>
<!-- survives -->
<g id="node5" class="node">
<title>survives</title>
<polygon fill="#cfe3f7" stroke="none" points="305.75,-96 108.25,-96 108.25,0 311.75,0 311.75,-90 305.75,-96"/>
<polyline fill="none" stroke="none" points="305.75,-96 305.75,-90"/>
<polyline fill="none" stroke="none" points="311.75,-90 305.75,-90"/>
<text xml:space="preserve" text-anchor="middle" x="210" y="-83.45" font-family="Helvetica,sans-Serif" font-size="9.00" fill="#1a1a1a">Read it inside&#45;out: the Scoreboard sits in the</text>
<text xml:space="preserve" text-anchor="middle" x="210" y="-73.7" font-family="Helvetica,sans-Serif" font-size="9.00" fill="#1a1a1a">outermost box precisely because wins, deaths</text>
<text xml:space="preserve" text-anchor="middle" x="210" y="-63.95" font-family="Helvetica,sans-Serif" font-size="9.00" fill="#1a1a1a">and eliminations must outlive the Game that</text>
<text xml:space="preserve" text-anchor="middle" x="210" y="-54.2" font-family="Helvetica,sans-Serif" font-size="9.00" fill="#1a1a1a">earned them — a match is rebuilt from nothing</text>
<text xml:space="preserve" text-anchor="middle" x="210" y="-44.45" font-family="Helvetica,sans-Serif" font-size="9.00" fill="#1a1a1a">every time.</text>
<text xml:space="preserve" text-anchor="middle" x="210" y="-24.7" font-family="Helvetica,sans-Serif" font-size="9.00" fill="#1a1a1a">The same reasoning puts the PlayerRegistry</text>
<text xml:space="preserve" text-anchor="middle" x="210" y="-14.95" font-family="Helvetica,sans-Serif" font-size="9.00" fill="#1a1a1a">there: the roster changes between matches,</text>
<text xml:space="preserve" text-anchor="middle" x="210" y="-5.2" font-family="Helvetica,sans-Serif" font-size="9.00" fill="#1a1a1a">so it cannot belong to one.</text>
</g>
<!-- p1&#45;&gt;survives -->
<g id="edge4" class="edge">
<title>p1&#45;&gt;survives</title>
<path fill="none" stroke="#888888" stroke-dasharray="5,2" d="M210,-131.55C210,-121.36 210,-108.56 210,-96.11"/>
</g>
<!-- p2 -->
<g id="node2" class="node">
<title>p2</title>
<polygon fill="#cfe3f7" stroke="none" points="350,-245.75 70,-245.75 70,-209.75 350,-209.75 350,-245.75"/>
<text xml:space="preserve" text-anchor="start" x="78" y="-229.5" font-family="Helvetica,sans-Serif" font-size="10.00" fill="#1a1a1a">Player instances</text>
<text xml:space="preserve" text-anchor="start" x="78" y="-218.25" font-family="Helvetica,sans-Serif" font-size="10.00" fill="#1a1a1a">built from AgentConfig, reused across every match they play</text>
</g>
<!-- p2&#45;&gt;p1 -->
<!-- p3 -->
<g id="node3" class="node">
<title>p3</title>
<polygon fill="#d8ecd8" stroke="none" points="388.25,-317.75 31.75,-317.75 31.75,-281.75 388.25,-281.75 388.25,-317.75"/>
<text xml:space="preserve" text-anchor="start" x="39.75" y="-295.88" font-family="Helvetica,sans-Serif" font-size="10.00" fill="#1a1a1a">Game &#160;· &#160;positions &#160;· &#160;health (back to 100) &#160;· &#160;each robot&#39;s own Spell instances</text>
</g>
<!-- p3&#45;&gt;p2 -->
<!-- p4 -->
<g id="node4" class="node">
<title>p4</title>
<polygon fill="#e6e6e6" stroke="none" points="348.12,-389.75 71.88,-389.75 71.88,-353.75 348.12,-353.75 348.12,-389.75"/>
<text xml:space="preserve" text-anchor="start" x="79.88" y="-368.62" font-family="Helvetica,sans-Serif" font-size="10.00" fill="#1a1a1a">GameView out &#160;→ &#160;PlayerTurn back &#160;→ &#160;Action, SpellEffect</text>
</g>
<!-- p4&#45;&gt;p3 -->
</g>
</svg>
