<?xml version="1.0" encoding="UTF-8" standalone="no"?>
<!DOCTYPE svg PUBLIC "-//W3C//DTD SVG 1.1//EN"
 "http://www.w3.org/Graphics/SVG/1.1/DTD/svg11.dtd">
<!-- Generated by graphviz version 14.1.2 (20260124.0452)
 -->
<!-- Title: ports Pages: 1 -->
<svg width="795pt" height="676pt"
 viewBox="0.00 0.00 795.00 676.00" xmlns="http://www.w3.org/2000/svg" xmlns:xlink="http://www.w3.org/1999/xlink">
<g id="graph0" class="graph" transform="scale(1 1) rotate(0) translate(4 672)">
<title>ports</title>
<g id="clust1" class="cluster">
<title>cluster_edge</title>
<path fill="none" stroke="#888888" stroke-dasharray="5,2" d="M293.75,-273C293.75,-273 520.5,-273 520.5,-273 526.5,-273 532.5,-279 532.5,-285 532.5,-285 532.5,-648 532.5,-648 532.5,-654 526.5,-660 520.5,-660 520.5,-660 293.75,-660 293.75,-660 287.75,-660 281.75,-654 281.75,-648 281.75,-648 281.75,-285 281.75,-285 281.75,-279 287.75,-273 293.75,-273"/>
<text xml:space="preserve" text-anchor="middle" x="407.12" y="-646.5" font-family="Helvetica,sans-Serif" font-size="10.00" fill="#888888"> &#160;EDGE MODULES — the only places IO is allowed &#160;</text>
</g>
<g id="clust2" class="cluster">
<title>cluster_pure</title>
<path fill="none" stroke="#888888" stroke-dasharray="5,2" d="M317.12,-8C317.12,-8 496.12,-8 496.12,-8 502.12,-8 508.12,-14 508.12,-20 508.12,-20 508.12,-253 508.12,-253 508.12,-259 502.12,-265 496.12,-265 496.12,-265 317.12,-265 317.12,-265 311.12,-265 305.12,-259 305.12,-253 305.12,-253 305.12,-20 305.12,-20 305.12,-14 311.12,-8 317.12,-8"/>
<text xml:space="preserve" text-anchor="middle" x="406.62" y="-251.5" font-family="Helvetica,sans-Serif" font-size="10.00" fill="#888888"> &#160;PURE SUPPORTING DOMAINS &#160;</text>
</g>
<!-- clock -->
<g id="node1" class="node">
<title>clock</title>
<polygon fill="#f6cfcf" stroke="none" points="464.12,-322.88 349.12,-322.88 349.12,-281.12 464.12,-281.12 464.12,-322.88"/>
<text xml:space="preserve" text-anchor="middle" x="406.62" y="-309.38" font-family="Helvetica,sans-Serif" font-size="10.00" fill="#1a1a1a">Clock</text>
<text xml:space="preserve" text-anchor="middle" x="406.62" y="-298.12" font-family="Helvetica,sans-Serif" font-size="10.00" fill="#1a1a1a">now() · sleep()</text>
<text xml:space="preserve" text-anchor="middle" x="406.62" y="-286.88" font-family="Helvetica,sans-Serif" font-size="10.00" fill="#1a1a1a">the WHOLE time edge</text>
</g>
<!-- note -->
<g id="node12" class="node">
<title>note</title>
<polygon fill="#cfe3f7" stroke="none" points="780.75,-330.38 561.5,-330.38 561.5,-273.62 786.75,-273.62 786.75,-324.38 780.75,-330.38"/>
<polyline fill="none" stroke="none" points="780.75,-330.38 780.75,-324.38"/>
<polyline fill="none" stroke="none" points="786.75,-324.38 780.75,-324.38"/>
<text xml:space="preserve" text-anchor="middle" x="674.12" y="-317.82" font-family="Helvetica,sans-Serif" font-size="9.00" fill="#1a1a1a">Every one of these has an in&#45;memory twin in</text>
<text xml:space="preserve" text-anchor="middle" x="674.12" y="-308.07" font-family="Helvetica,sans-Serif" font-size="9.00" fill="#1a1a1a">tests/fakes — FrozenClock, InMemoryConsole,</text>
<text xml:space="preserve" text-anchor="middle" x="674.12" y="-298.32" font-family="Helvetica,sans-Serif" font-size="9.00" fill="#1a1a1a">InMemoryFileSystem, FixedRandomizer … which is</text>
<text xml:space="preserve" text-anchor="middle" x="674.12" y="-288.57" font-family="Helvetica,sans-Serif" font-size="9.00" fill="#1a1a1a">what makes the whole suite runnable with no</text>
<text xml:space="preserve" text-anchor="middle" x="674.12" y="-278.82" font-family="Helvetica,sans-Serif" font-size="9.00" fill="#1a1a1a">network, no disk and no wall clock.</text>
</g>
<!-- clock&#45;&gt;note -->
<g id="edge3" class="edge">
<title>clock&#45;&gt;note</title>
<path fill="none" stroke="#888888" stroke-dasharray="5,2" d="M464.58,-302C492.77,-302 527.81,-302 561.08,-302"/>
</g>
<!-- con -->
<g id="node2" class="node">
<title>con</title>
<polygon fill="#f6cfcf" stroke="none" points="466.75,-382.88 346.5,-382.88 346.5,-341.12 466.75,-341.12 466.75,-382.88"/>
<text xml:space="preserve" text-anchor="middle" x="406.62" y="-369.38" font-family="Helvetica,sans-Serif" font-size="10.00" fill="#1a1a1a">Console</text>
<text xml:space="preserve" text-anchor="middle" x="406.62" y="-358.12" font-family="Helvetica,sans-Serif" font-size="10.00" fill="#1a1a1a">write_line()</text>
<text xml:space="preserve" text-anchor="middle" x="406.62" y="-346.88" font-family="Helvetica,sans-Serif" font-size="10.00" fill="#1a1a1a">no print() anywhere else</text>
</g>
<!-- fs -->
<g id="node3" class="node">
<title>fs</title>
<polygon fill="#f6cfcf" stroke="none" points="467.88,-442.88 345.38,-442.88 345.38,-401.12 467.88,-401.12 467.88,-442.88"/>
<text xml:space="preserve" text-anchor="middle" x="406.62" y="-429.38" font-family="Helvetica,sans-Serif" font-size="10.00" fill="#1a1a1a">FileSystem</text>
<text xml:space="preserve" text-anchor="middle" x="406.62" y="-418.12" font-family="Helvetica,sans-Serif" font-size="10.00" fill="#1a1a1a">read_text() · write_text()</text>
<text xml:space="preserve" text-anchor="middle" x="406.62" y="-406.88" font-family="Helvetica,sans-Serif" font-size="10.00" fill="#1a1a1a">no open() anywhere else</text>
</g>
<!-- rnd -->
<g id="node4" class="node">
<title>rnd</title>
<polygon fill="#f6cfcf" stroke="none" points="463.75,-513.5 349.5,-513.5 349.5,-460.5 463.75,-460.5 463.75,-513.5"/>
<text xml:space="preserve" text-anchor="middle" x="406.62" y="-500" font-family="Helvetica,sans-Serif" font-size="10.00" fill="#1a1a1a">Randomizer</text>
<text xml:space="preserve" text-anchor="middle" x="406.62" y="-488.75" font-family="Helvetica,sans-Serif" font-size="10.00" fill="#1a1a1a">choice()</text>
<text xml:space="preserve" text-anchor="middle" x="406.62" y="-477.5" font-family="Helvetica,sans-Serif" font-size="10.00" fill="#1a1a1a">nondeterministic input,</text>
<text xml:space="preserve" text-anchor="middle" x="406.62" y="-466.25" font-family="Helvetica,sans-Serif" font-size="10.00" fill="#1a1a1a">confined like the clock</text>
</g>
<!-- chan -->
<g id="node5" class="node">
<title>chan</title>
<polygon fill="#f6cfcf" stroke="none" points="494.12,-572.88 319.12,-572.88 319.12,-531.12 494.12,-531.12 494.12,-572.88"/>
<text xml:space="preserve" text-anchor="middle" x="406.62" y="-559.38" font-family="Helvetica,sans-Serif" font-size="10.00" fill="#1a1a1a">EventChannel</text>
<text xml:space="preserve" text-anchor="middle" x="406.62" y="-548.12" font-family="Helvetica,sans-Serif" font-size="10.00" fill="#1a1a1a">publish() · subscribe()</text>
<text xml:space="preserve" text-anchor="middle" x="406.62" y="-536.88" font-family="Helvetica,sans-Serif" font-size="10.00" fill="#1a1a1a">where the game thread meets HTTP</text>
</g>
<!-- reg2 -->
<g id="node6" class="node">
<title>reg2</title>
<polygon fill="#f6cfcf" stroke="none" points="481.75,-632.88 331.5,-632.88 331.5,-591.12 481.75,-591.12 481.75,-632.88"/>
<text xml:space="preserve" text-anchor="middle" x="406.62" y="-619.38" font-family="Helvetica,sans-Serif" font-size="10.00" fill="#1a1a1a">PlayerRegistry</text>
<text xml:space="preserve" text-anchor="middle" x="406.62" y="-608.12" font-family="Helvetica,sans-Serif" font-size="10.00" fill="#1a1a1a">the fourth concurrency site,</text>
<text xml:space="preserve" text-anchor="middle" x="406.62" y="-596.88" font-family="Helvetica,sans-Serif" font-size="10.00" fill="#1a1a1a">same reason as EventChannel</text>
</g>
<!-- log -->
<g id="node7" class="node">
<title>log</title>
<polygon fill="#e6e6e6" stroke="none" points="490.38,-57.88 322.88,-57.88 322.88,-16.12 490.38,-16.12 490.38,-57.88"/>
<text xml:space="preserve" text-anchor="middle" x="406.62" y="-44.38" font-family="Helvetica,sans-Serif" font-size="10.00" fill="#1a1a1a">Logger + LogFormatter</text>
<text xml:space="preserve" text-anchor="middle" x="406.62" y="-33.12" font-family="Helvetica,sans-Serif" font-size="10.00" fill="#1a1a1a">LogRecord, LogLevel</text>
<text xml:space="preserve" text-anchor="middle" x="406.62" y="-21.88" font-family="Helvetica,sans-Serif" font-size="10.00" fill="#1a1a1a">colour chosen in the pure formatter</text>
</g>
<!-- cfg -->
<g id="node8" class="node">
<title>cfg</title>
<polygon fill="#e6e6e6" stroke="none" points="495.25,-117.88 318,-117.88 318,-76.12 495.25,-76.12 495.25,-117.88"/>
<text xml:space="preserve" text-anchor="middle" x="406.62" y="-104.38" font-family="Helvetica,sans-Serif" font-size="10.00" fill="#1a1a1a">ConfigLoader</text>
<text xml:space="preserve" text-anchor="middle" x="406.62" y="-93.12" font-family="Helvetica,sans-Serif" font-size="10.00" fill="#1a1a1a">AppConfig, AgentConfig</text>
<text xml:space="preserve" text-anchor="middle" x="406.62" y="-81.88" font-family="Helvetica,sans-Serif" font-size="10.00" fill="#1a1a1a">extra=&quot;forbid&quot;: a typo must fail loudly</text>
</g>
<!-- ba -->
<g id="node9" class="node">
<title>ba</title>
<polygon fill="#e6e6e6" stroke="none" points="500.12,-177.88 313.12,-177.88 313.12,-136.12 500.12,-136.12 500.12,-177.88"/>
<text xml:space="preserve" text-anchor="middle" x="406.62" y="-164.38" font-family="Helvetica,sans-Serif" font-size="10.00" fill="#1a1a1a">AgentRoster · AgentPlayerFactory</text>
<text xml:space="preserve" text-anchor="middle" x="406.62" y="-153.12" font-family="Helvetica,sans-Serif" font-size="10.00" fill="#1a1a1a">TurnPlanner</text>
<text xml:space="preserve" text-anchor="middle" x="406.62" y="-141.88" font-family="Helvetica,sans-Serif" font-size="10.00" fill="#1a1a1a">the model call lives behind TurnPlanner</text>
</g>
<!-- ac -->
<g id="node10" class="node">
<title>ac</title>
<polygon fill="#e6e6e6" stroke="none" points="490,-237.88 323.25,-237.88 323.25,-196.12 490,-196.12 490,-237.88"/>
<text xml:space="preserve" text-anchor="middle" x="406.62" y="-224.38" font-family="Helvetica,sans-Serif" font-size="10.00" fill="#1a1a1a">AgentClient &#160;(+ AgentClientError)</text>
<text xml:space="preserve" text-anchor="middle" x="406.62" y="-213.12" font-family="Helvetica,sans-Serif" font-size="10.00" fill="#1a1a1a">the A2A transport seam</text>
<text xml:space="preserve" text-anchor="middle" x="406.62" y="-201.88" font-family="Helvetica,sans-Serif" font-size="10.00" fill="#1a1a1a">modules/agent_client is still empty</text>
</g>
<!-- eng -->
<g id="node11" class="node">
<title>eng</title>
<polygon fill="#f7e3c0" stroke="none" points="161.5,-195.5 0,-195.5 0,-142.5 161.5,-142.5 161.5,-195.5"/>
<text xml:space="preserve" text-anchor="middle" x="80.75" y="-182" font-family="Helvetica,sans-Serif" font-size="10.00" fill="#1a1a1a">Engine</text>
<text xml:space="preserve" text-anchor="middle" x="80.75" y="-170.75" font-family="Helvetica,sans-Serif" font-size="10.00" fill="#1a1a1a">THE FACADE</text>
<text xml:space="preserve" text-anchor="middle" x="80.75" y="-159.5" font-family="Helvetica,sans-Serif" font-size="10.00" fill="#1a1a1a">every use case is a method here;</text>
<text xml:space="preserve" text-anchor="middle" x="80.75" y="-148.25" font-family="Helvetica,sans-Serif" font-size="10.00" fill="#1a1a1a">frontends are thin adapters</text>
</g>
<!-- eng&#45;&gt;clock -->
<g id="edge1" class="edge">
<title>eng&#45;&gt;clock</title>
<path fill="none" stroke="#888888" d="M128.61,-195.85C168.38,-217.8 227.47,-248.45 281.75,-269 281.86,-269.04 281.98,-269.09 282.09,-269.13"/>
<polygon fill="#888888" stroke="#888888" points="280.79,-272.38 291.38,-272.49 283.17,-265.8 280.79,-272.38"/>
<text xml:space="preserve" text-anchor="start" x="179.5" y="-275.59" font-family="Helvetica,sans-Serif" font-size="9.00" fill="#888888"> &#160;injected into</text>
<text xml:space="preserve" text-anchor="start" x="179.5" y="-265.84" font-family="Helvetica,sans-Serif" font-size="9.00" fill="#888888"> &#160;whatever needs them</text>
</g>
<!-- eng&#45;&gt;log -->
<g id="edge2" class="edge">
<title>eng&#45;&gt;log</title>
<path fill="none" stroke="#888888" d="M126.84,-142.14C166.5,-119.46 226.37,-87.5 281.75,-67 285.86,-65.48 290.08,-64.01 294.37,-62.6"/>
<polygon fill="#888888" stroke="#888888" points="295.2,-66.01 303.68,-59.66 293.09,-59.33 295.2,-66.01"/>
<text xml:space="preserve" text-anchor="middle" x="225.62" y="-113.67" font-family="Helvetica,sans-Serif" font-size="9.00" fill="#888888"> &#160;and these</text>
</g>
</g>
</svg>
